<?xml version="1.0" encoding="UTF-8"?>
<svg width="1001px" height="288px" viewBox="0 0 1001 288" version="1.1" xmlns="http://www.w3.org/2000/svg" fill="white" stroke="white">
    <g id="trello" stroke="white" stroke-width="1" fill="white" fill-rule="evenodd">
        <path d="M803.845511,215.335666 C788.365344,221.645303 776.149638,243.444152 757.570926,255.83386 C756.418884,256.60213 755.266842,256.986265 754.498814,256.986265 C752.962758,256.986265 751.042688,255.449725 751.042688,248.535297 C751.042688,224.718931 758.722968,213.194884 765.251206,196.292947 C787.908033,137.520303 826.693447,87.198628 861.254708,32.2673337 C863.942806,28.0418495 865.478862,23.4322304 865.478862,18.4384764 C865.478862,14.2129922 863.942806,10.7557779 862.022736,6.53029373 C860.48668,3.0730794 853.574428,0 845.894148,0 C841.669993,0 837.829853,0.384134925 832.837671,0.384134925 C814.789013,0.384134925 810.948873,26.8894448 806.724719,33.8038734 C777.923668,82.5890089 744.898464,142.898192 728.001848,185.537169 C724.296624,195.095755 720.294305,204.654342 717.252158,214.464462 C700.554886,219.30106 688.046031,242.785516 668.479677,255.83386 C667.327635,256.60213 666.175593,256.986265 665.407564,256.986265 C663.871508,256.986265 661.951438,255.449725 661.951438,248.535297 C661.951438,224.718931 669.631719,213.194884 676.159957,196.292947 C698.816783,137.520303 737.602198,87.198628 772.163458,32.2673337 C774.851556,28.0418495 776.387612,23.4322304 776.387612,18.4384764 C776.387612,14.2129922 774.851556,10.7557779 772.931486,6.53029373 C771.39543,3.0730794 764.483178,0 756.802898,0 C752.578744,0 748.738604,0.384134925 743.746422,0.384134925 C725.697764,0.384134925 721.857623,26.8894448 717.633469,33.8038734 C688.832419,82.5890089 655.807214,142.898192 638.910598,185.537169 C637.567322,189.002498 636.184998,192.467828 634.823534,195.945142 C634.403111,196.169774 633.973784,196.41337 633.534402,196.677082 C613.949688,208.201129 597.437085,228.560281 573.628217,242.389138 C569.020049,245.078082 554.811531,255.06559 543.29111,255.06559 C540.603012,255.06559 538.298928,254.297321 535.994844,253.144916 C532.538718,251.608376 529.082592,244.309812 529.082592,242.005003 C529.082592,240.084328 529.466606,239.700193 533.306746,237.395384 C567.099979,217.036233 594.748987,187.841978 618.557856,158.647724 C627.390178,147.891946 638.910598,126.764525 638.910598,111.399128 C638.910598,101.41162 635.454472,89.8875725 623.550038,85.6620883 C615.10173,82.5890089 605.501379,81.0524692 597.821099,81.0524692 C577.468357,81.0524692 562.491811,90.2717074 554.043503,99.1068107 C545.442658,108.291685 537.123237,117.722883 529.39401,127.485609 C521.318193,120.511238 509.927344,117.545287 499.1295,117.545287 C486.457037,117.545287 462.648169,133.294819 450.359721,142.514057 C448.439651,144.050597 447.287609,144.818867 446.519581,144.818867 C446.135567,144.818867 445.751553,144.434732 445.751553,143.666462 C445.751553,143.282327 446.519581,139.825113 446.519581,133.678954 C446.519581,128.301065 445.367539,121.386636 440.375357,112.935668 C439.223315,111.014993 432.311063,106.789509 423.862754,106.789509 C413.494376,106.789509 403.894026,111.783263 403.894026,117.161152 C403.894026,121.002501 407.350152,122.539041 407.350152,125.996255 C407.350152,127.91693 405.814096,136.752033 403.510012,145.203002 C396.981774,169.787637 388.91748,193.988137 380.469172,218.188638 C375.861004,231.63336 360.500443,243.541543 360.500443,258.13867 C360.500443,262.748289 363.572555,268.894448 367.79671,273.504067 C374.708962,281.186765 378.933116,283.87571 385.07734,283.87571 C387.765438,283.87571 390.83755,283.10744 393.525648,280.80263 C399.285858,275.808876 402.35797,270.815122 403.894026,263.900694 C413.87839,218.572772 442.679441,187.841978 474.552603,167.482827 C485.304995,160.568399 499.897528,153.269835 501.817598,153.269835 C503.786444,153.269835 506.865664,154.178609 509.968432,155.064297 C501.058688,169.601352 493.839536,184.932091 489.145136,201.286701 C487.60908,206.66459 486.841052,211.658344 486.841052,217.036233 C486.841052,225.871336 488.761122,235.090574 491.833234,243.925678 C496.057388,256.217995 502.96964,266.973773 512.56999,271.967527 C530.234634,281.186765 542.907096,286.180519 554.427517,286.180519 C560.955755,286.180519 565.947937,285.028115 571.324133,281.955035 C596.564172,267.66999 612.038932,256.832599 623.213004,247.206643 C623.519392,256.966528 625.442672,262.37375 632.38236,269.662718 C639.294612,276.961281 650.047004,283.491575 664.255522,286.564654 C666.559607,286.948789 668.863691,287.332924 671.167775,287.332924 C687.424245,287.332924 703.068995,274.115604 715.132621,261.012951 C716.529359,263.872184 718.559079,266.601497 721.473609,269.662718 C728.385862,276.961281 739.138254,283.491575 753.346772,286.564654 C755.650856,286.948789 757.95494,287.332924 760.259024,287.332924 C779.30186,287.332924 797.505306,269.196396 810.09643,254.352788 C814.292852,263.035236 826.019657,271.619467 840.133937,278.497821 C843.974077,280.418495 848.582246,281.5709 852.8064,281.5709 C869.319002,281.5709 881.223436,268.126178 890.439772,258.13867 C914.248641,232.017495 927.305117,199.750161 937.289481,159.031859 C938.057509,155.95878 939.209551,154.806375 940.745607,154.806375 C944.585747,154.806375 949.577929,154.806375 954.954125,154.038105 C965.322504,152.501565 973.386798,149.044351 982.987148,147.507811 C988.747358,146.355407 987.97933,144.434732 993.355526,142.514057 C997.195666,140.977518 1000.26778,139.440978 1000.26778,135.599629 C1000.26778,129.069335 988.363344,122.154906 970.314686,122.154906 C956.106167,122.154906 947.657859,123.307311 941.897649,123.307311 C933.065327,123.307311 930.761243,120.618367 925.001033,105.637104 C925.001033,105.637104 930.761243,120.618367 925.001033,105.637104 C923.848991,102.564025 922.696949,101.027485 919.240823,97.9544059 C911.176529,91.0399773 901.192164,88.7351677 893.12787,88.7351677 C873.92717,88.7351677 857.414568,108.326049 845.894148,124.843851 C843.206049,128.6852 839.365909,131.758279 836.677811,135.983764 C820.859034,159.7194 805.713425,186.485247 803.845511,215.335666 Z M312.882707,84.5096836 C322.483057,84.5096836 327.859253,83.7414137 329.011295,83.7414137 C330.163337,83.7414137 330.931365,84.1255486 330.931365,85.2779534 C330.931365,86.0462233 330.547351,87.198628 327.859253,92.9606519 C304.434398,143.282327 288.30581,194.372272 274.097292,250.840106 C273.713278,252.376646 272.561236,258.13867 272.561236,263.900694 C272.561236,269.278583 274.097292,275.040606 279.473488,278.113686 C289.841866,284.259845 298.290174,286.948789 304.050384,286.948789 C312.498693,286.948789 316.722847,281.5709 316.722847,272.735797 C316.722847,265.053098 317.106861,256.986265 318.258903,250.840106 C329.011295,194.372272 345.139883,150.196756 370.100794,104.100565 C382.005228,82.204874 383.541284,81.0524692 383.541284,79.1317946 C383.541284,78.3635248 383.15727,77.21112 382.389242,76.0587152 C397.749802,72.6015009 416.182474,70.2966913 433.079091,70.2966913 C434.999161,70.2966913 442.679441,72.9856358 443.831483,74.1380406 C446.519581,76.8269851 449.207679,79.5159295 453.815847,79.5159295 C457.655987,79.5159295 464.184225,76.8269851 466.488309,75.2904454 C471.864505,71.4490961 474.552603,67.2236119 474.552603,60.3091833 C474.552603,53.7788895 450.359721,37.6452227 433.463105,37.6452227 C412.726348,37.6452227 393.909662,40.3341672 376.245018,43.7913815 C368.564738,45.3279212 340.915729,49.5534054 320.947001,49.5534054 C301.7463,49.5534054 302.898342,46.8644609 294.834048,46.8644609 C290.22588,46.8644609 287.921796,49.1692704 286.001726,51.0899451 C284.081656,53.0106197 282.929614,60.6933182 282.929614,67.6077468 C282.929614,71.0649612 282.929614,73.7539057 284.849684,76.0587152 C290.609894,82.9731439 301.7463,84.5096836 312.882707,84.5096836 C312.882707,84.5096836 301.7463,84.5096836 312.882707,84.5096836 Z M597.437085,115.624613 C597.437085,119.081827 596.285043,121.386636 591.676875,128.6852 C587.068707,135.983764 588.988777,135.983764 583.228567,143.666462 C572.092161,158.647724 558.267657,173.628986 540.218998,190.146788 C535.226816,194.756407 534.458788,194.756407 533.69076,194.756407 C533.306746,194.756407 532.538718,194.372272 532.538718,193.604002 C532.538718,192.451598 532.922732,190.915058 536.762872,182.848224 C548.667307,157.879454 563.259839,141.361652 579.388427,125.227986 C588.220749,116.392882 593.596945,113.319803 595.517015,113.319803 C596.669057,113.319803 597.437085,113.703938 597.437085,115.624613 C597.437085,115.624613 597.437085,113.703938 597.437085,115.624613 Z M892.743856,125.612121 C893.12787,125.612121 893.511884,125.996255 893.895898,126.764525 C894.279912,127.91693 895.04794,129.069335 896.96801,130.605875 C898.504066,131.758279 898.504066,137.136168 898.504066,141.361652 C898.504066,178.62274 877.383296,209.353534 856.64654,240.468463 C852.038372,247.382892 849.350274,248.535297 847.04619,248.535297 C845.12612,248.535297 842.054007,243.541543 840.901965,240.468463 C839.365909,236.242979 838.981895,231.249225 838.981895,229.32855 C838.981895,199.366026 867.398932,154.806375 886.215618,130.22174 C889.28773,125.996255 891.591814,125.612121 892.743856,125.612121 C892.743856,125.612121 891.591814,125.612121 892.743856,125.612121 Z" id="Type" fill="white" fill-rule="nonzero"></path>
        <path d="M30.6183101,45.3747893 L212.439775,45.3747893 C229.170013,45.3747893 242.745585,58.9474351 242.745585,75.6901421 L242.745585,257.568859 C242.745585,274.304366 229.177211,287.884212 212.439775,287.884212 L30.6183101,287.884212 C13.8880716,287.884212 0.3125,274.311566 0.3125,257.568859 L0.3125,75.6901421 C0.3125,58.9546356 13.8808733,45.3747893 30.6183101,45.3747893 Z M151.829585,76.9010142 C143.798044,76.9010142 137.287193,83.4152115 137.287193,91.4583066 L137.287193,169.047868 C137.287193,177.087638 143.800432,183.60516 151.829585,183.60516 L196.686892,183.60516 C204.718433,183.60516 211.229284,177.090963 211.229284,169.047868 L211.229284,91.4583066 C211.229284,83.418536 204.716045,76.9010142 196.686892,76.9010142 L151.829585,76.9010142 Z M46.3711933,76.9010142 C38.3396518,76.9010142 31.828801,83.409251 31.828801,91.457867 L31.828801,229.675663 C31.828801,237.71519 38.3420393,244.232516 46.3711933,244.232516 L91.2284997,244.232516 C99.2600411,244.232516 105.770892,237.724279 105.770892,229.675663 L105.770892,91.457867 C105.770892,83.4183393 99.2576531,76.9010142 91.2284997,76.9010142 L46.3711933,76.9010142 Z" id="Board" fill="white" fill-rule="nonzero"></path>
    </g>
</svg>